/* XPM */
static char * unknown[] = {
"17 16 4 1",
"  s None c None",
". c #424242",
"# c #000000",
"a c #444444",
"          aaaaaa ",
"         #######.",
"      #. #a    #a",
"     ##. #a    #a",
"    ###. #.    #.",
"   ##..###.    #.",
"  ##. ....     #.",
" ##.           #.",
"##.            #.",
"###            #.",
" ###           #.",
"  ### ##########.",
"   ####......... ",
"    ###.         ",
"     ##.         ",
"      #.         "};