/* XPM */
static char * unknown[] = {
"14 12 3 1",
"  s None c None",
". c #424242",
"# c #000000",
"      ##      ",
"     ####     ",
"    ##.###    ",
"   ##.  ###   ",
"  ##.    ###  ",
" ##.      ### ",
"###..    #####",
"...#.    #....",
"   #.    #.   ",
"   #.    #.   ",
"   #######.   ",
"    ......    "};