/* XPM */
static char * unknown[] = {
"21 14 3 1",
"  s None c None",
". c #000000",
"# c #424242",
"         #.        . ",
"         #..      #.#",
"         #...     #.#",
" .........##..    #.#",
"#.######### #..   #.#",
"#.           #..  #.#",
"#.            #.. #.#",
"#.            ... #.#",
"#.           ...  #.#",
"#.......... ...   #.#",
" #########....    #.#",
"         #...     #.#",
"         #..      #.#",
"         #.        . "};